# xmcd
#
# Track frame offsets:
# 150
# 13692
# 29952
# 53265
# 70271
# 88862
# 104326
# 116816
# 132519
# 151296
# 171761
# 187041
# 203075
# 217934
# 237120
# 251166
# 265803
# 284449
# 300768
# 318361
# 330902
# 343651
#
# Disc length: 4790 seconds
#
#
# Revision: 0
# Processed by: cddbd v1.5.2PL0 Copyright (c) Steve Scherf et al.
# Submitted via: FreeRIP 2.951 
#
DISCID=3b12b416
DTITLE=The Best  In Mexico  - Hits ene 2009 
DYEAR=2009
DGENRE=Alt. Rock
TTITLE0=Intro
TTITLE1=Timbiriche - Aunque digas
TTITLE2=Playa limbo - El tiempo de ti
TTITLE3=Iskander - A labio dulce
TTITLE4=Madonna Justin - 4 minutes
TTITLE5=Pambo - Caray
TTITLE6=Belanova - one two tree goo
TTITLE7=Juanes - tres
TTITLE8=David - bruja Hada
TTITLE9=Mana - sino Te hubieras ido
TTITLE10=La quinta estación - Tan solo quiero amarte
TTITLE11=Babasonicos - Pijamas
TTITLE12=Chenoa - todo ira bien
TTITLE13=Alicia keys - No one
TTITLE14=Chambao y camila - Yo soy quien
TTITLE15=Miranda - Enamorada
TTITLE16=Diego - Perdido en ti
TTITLE17=Julieta venegas - El presente
TTITLE18=Si tu te atreves
TTITLE19=Chetes - efecto domino
TTITLE20=Jesse and Joy - Esto es lo que soy
TTITLE21=Camila - Yo  quiero
EXTD=
EXTT0=
EXTT1=
EXTT2=
EXTT3=
EXTT4=
EXTT5=
EXTT6=
EXTT7=
EXTT8=
EXTT9=
EXTT10=
EXTT11=
EXTT12=
EXTT13=
EXTT14=
EXTT15=
EXTT16=
EXTT17=
EXTT18=
EXTT19=
EXTT20=
EXTT21=
PLAYORDER=
